# xmcd CD database file
#
# Track frame offsets:
#	150
#	23532
#	43755
#	64380
#	92505
#	115712
#	137550
#	155045
#	177252
#	198292
#	210957
#
# Disc length: 3102 seconds
#
# Revision: 0
# Processed by: cddbd v1.5.1PL0 Copyright (c) Steve Scherf et al.
# Submitted via: CDex 1.51
#
DISCID=8c0c1c0b
DTITLE=Joe Sample - Spellbound
DYEAR=2003
DGENRE=Jazz
TTITLE0=Seven Years Of Good Luck
TTITLE1=Spellbound
TTITLE2=Somehow Our Love Survives
TTITLE3=All God's Children
TTITLE4=Leading Me Back To You
TTITLE5=U Turn
TTITLE6=Bones Jive
TTITLE7=Luna En New York
TTITLE8=Sermonized
TTITLE9=Looking Glass
TTITLE10=Ballad
EXTD=YEAR: 2003
EXTT0=
EXTT1=
EXTT2=
EXTT3=
EXTT4=
EXTT5=
EXTT6=
EXTT7=
EXTT8=
EXTT9=
EXTT10=
PLAYORDER=
